<?xml version="1.0" encoding="utf-8"?>
<svg xmlns="http://www.w3.org/2000/svg" style="margin: auto; background: none; display: block; shape-rendering: auto;" width="233" height="91" preserveAspectRatio="xMidYMid">
<style type="text/css">
  text {
    text-anchor: middle; font-size: 53px; opacity: 0;
  }
</style>
<g style="transform-origin: 116.5px 45.5px; transform: scale(0.6625);">
<g transform="translate(116.5,45.5)">
  <g transform="translate(0,0)"><g class="path" style="transform: scale(0.91); transform-origin: -118.08px -6.19307px; animation: 1s linear -0.55s infinite normal forwards running breath-83d600ce-77ae-4bec-9097-b1f97f2d9d87;"><path d="M7.20-0.16L7.20-55.84L7.20-55.84Q10.96-56.24 14.56-56.44L14.56-56.44L14.56-56.44Q18.16-56.64 22.80-56.64L22.80-56.64L22.80-56.64Q30-56.64 35.20-54.40L35.20-54.40L35.20-54.40Q40.40-52.16 43.84-48.24L43.84-48.24L43.84-48.24Q47.28-44.32 48.92-39.12L48.92-39.12L48.92-39.12Q50.56-33.92 50.56-28.08L50.56-28.08L50.56-28.08Q50.56-22.24 48.88-17L48.88-17L48.88-17Q47.20-11.76 43.72-7.84L43.72-7.84L43.72-7.84Q40.24-3.92 34.84-1.64L34.84-1.64L34.84-1.64Q29.44 0.64 21.92 0.64L21.92 0.64L21.92 0.64Q17.36 0.64 13.96 0.44L13.96 0.44L13.96 0.44Q10.56 0.24 7.20-0.16L7.20-0.16zM22.56-50.08L22.56-50.08L22.56-50.08Q20.24-50.08 18.32-49.96L18.32-49.96L18.32-49.96Q16.40-49.84 14.80-49.68L14.80-49.68L14.80-6.40L14.80-6.40Q16.48-6.16 18.32-6.08L18.32-6.08L18.32-6.08Q20.16-6 22.16-6L22.16-6L22.16-6Q27.52-6 31.44-7.64L31.44-7.64L31.44-7.64Q35.36-9.28 37.88-12.20L37.88-12.20L37.88-12.20Q40.40-15.12 41.60-19.16L41.60-19.16L41.60-19.16Q42.80-23.20 42.80-28.08L42.80-28.08L42.80-28.08Q42.80-32.40 41.60-36.36L41.60-36.36L41.60-36.36Q40.40-40.32 37.92-43.40L37.92-43.40L37.92-43.40Q35.44-46.48 31.60-48.28L31.60-48.28L31.60-48.28Q27.76-50.08 22.56-50.08" fill="#ffffff" stroke="none" stroke-width="none" transform="translate(-146.95999145507812,21.80693258921306)" style="fill: rgb(255, 255, 255);"></path></g><g class="path" style="transform: scale(0.91); transform-origin: -68.48px 1.00693px; animation: 1s linear -0.44s infinite normal forwards running breath-83d600ce-77ae-4bec-9097-b1f97f2d9d87;"><path d="M91.84-20.80L91.84-20.80L91.84-20.80Q91.84-23.92 90.84-26.72L90.84-26.72L90.84-26.72Q89.84-29.52 88.04-31.60L88.04-31.60L88.04-31.60Q86.24-33.68 83.80-34.92L83.80-34.92L83.80-34.92Q81.36-36.16 78.48-36.16L78.48-36.16L78.48-36.16Q72.16-36.16 68.64-32L68.64-32L68.64-32Q65.12-27.84 65.12-20.96L65.12-20.96L65.12-20.96Q65.12-17.84 66.12-15L66.12-15L66.12-15Q67.12-12.16 68.92-10.04L68.92-10.04L68.92-10.04Q70.72-7.92 73.16-6.68L73.16-6.68L73.16-6.68Q75.60-5.44 78.48-5.44L78.48-5.44L78.48-5.44Q81.60-5.44 84.08-6.56L84.08-6.56L84.08-6.56Q86.56-7.68 88.28-9.72L88.28-9.72L88.28-9.72Q90-11.76 90.92-14.56L90.92-14.56L90.92-14.56Q91.84-17.36 91.84-20.80zM57.76-20.80L57.76-20.80L57.76-20.80Q57.76-25.84 59.36-29.88L59.36-29.88L59.36-29.88Q60.96-33.92 63.72-36.72L63.72-36.72L63.72-36.72Q66.48-39.52 70.28-41.04L70.28-41.04L70.28-41.04Q74.08-42.56 78.48-42.56L78.48-42.56L78.48-42.56Q82.80-42.56 86.60-41.04L86.60-41.04L86.60-41.04Q90.40-39.52 93.20-36.72L93.20-36.72L93.20-36.72Q96-33.92 97.60-29.92L97.60-29.92L97.60-29.92Q99.20-25.92 99.20-20.96L99.20-20.96L99.20-20.96Q99.20-16 97.64-11.96L97.64-11.96L97.64-11.96Q96.08-7.92 93.28-5.04L93.28-5.04L93.28-5.04Q90.48-2.16 86.68-0.60L86.68-0.60L86.68-0.60Q82.88 0.96 78.48 0.96L78.48 0.96L78.48 0.96Q74 0.96 70.20-0.64L70.20-0.64L70.20-0.64Q66.40-2.24 63.64-5.12L63.64-5.12L63.64-5.12Q60.88-8 59.32-12L59.32-12L59.32-12Q57.76-16 57.76-20.80" fill="#ffffff" stroke="none" stroke-width="none" transform="translate(-146.95999145507812,21.80693258921306)" style="fill: rgb(255, 255, 255);"></path></g><g class="path" style="transform: scale(0.91); transform-origin: 7.64001px -6.19307px; animation: 1s linear -0.33s infinite normal forwards running breath-83d600ce-77ae-4bec-9097-b1f97f2d9d87;"><path d="M165.68 0L140.80-46.24L140.80 0L133.60 0L133.60-56L143.68-56L168.40-9.44L168.40-56L175.60-56L175.60 0L165.68 0" fill="#ffffff" stroke="none" stroke-width="none" transform="translate(-146.95999145507812,21.80693258921306)" style="fill: rgb(255, 255, 255);"></path></g><g class="path" style="transform: scale(0.91); transform-origin: 59.76px 1.00693px; animation: 1s linear -0.22s infinite normal forwards running breath-83d600ce-77ae-4bec-9097-b1f97f2d9d87;"><path d="M220.08-20.80L220.08-20.80L220.08-20.80Q220.08-23.92 219.08-26.72L219.08-26.72L219.08-26.72Q218.08-29.52 216.28-31.60L216.28-31.60L216.28-31.60Q214.48-33.68 212.04-34.92L212.04-34.92L212.04-34.92Q209.60-36.16 206.72-36.16L206.72-36.16L206.72-36.16Q200.40-36.16 196.88-32L196.88-32L196.88-32Q193.36-27.84 193.36-20.96L193.36-20.96L193.36-20.96Q193.36-17.84 194.36-15L194.36-15L194.36-15Q195.36-12.16 197.16-10.04L197.16-10.04L197.16-10.04Q198.96-7.92 201.40-6.68L201.40-6.68L201.40-6.68Q203.84-5.44 206.72-5.44L206.72-5.44L206.72-5.44Q209.84-5.44 212.32-6.56L212.32-6.56L212.32-6.56Q214.80-7.68 216.52-9.72L216.52-9.72L216.52-9.72Q218.24-11.76 219.16-14.56L219.16-14.56L219.16-14.56Q220.08-17.36 220.08-20.80zM186-20.80L186-20.80L186-20.80Q186-25.84 187.60-29.88L187.60-29.88L187.60-29.88Q189.20-33.92 191.96-36.72L191.96-36.72L191.96-36.72Q194.72-39.52 198.52-41.04L198.52-41.04L198.52-41.04Q202.32-42.56 206.72-42.56L206.72-42.56L206.72-42.56Q211.04-42.56 214.84-41.04L214.84-41.04L214.84-41.04Q218.64-39.52 221.44-36.72L221.44-36.72L221.44-36.72Q224.24-33.92 225.84-29.92L225.84-29.92L225.84-29.92Q227.44-25.92 227.44-20.96L227.44-20.96L227.44-20.96Q227.44-16 225.88-11.96L225.88-11.96L225.88-11.96Q224.32-7.92 221.52-5.04L221.52-5.04L221.52-5.04Q218.72-2.16 214.92-0.60L214.92-0.60L214.92-0.60Q211.12 0.96 206.72 0.96L206.72 0.96L206.72 0.96Q202.24 0.96 198.44-0.64L198.44-0.64L198.44-0.64Q194.64-2.24 191.88-5.12L191.88-5.12L191.88-5.12Q189.12-8 187.56-12L187.56-12L187.56-12Q186-16 186-20.80" fill="#ffffff" stroke="none" stroke-width="none" transform="translate(-146.95999145507812,21.80693258921306)" style="fill: rgb(255, 255, 255);"></path></g><g class="path" style="transform: scale(0.91); transform-origin: 99.56px -4.31307px; animation: 1s linear -0.11s infinite normal forwards running breath-83d600ce-77ae-4bec-9097-b1f97f2d9d87;"><path d="M238.80-40.08L240.32-53.20L245.84-53.20L245.84-40.08L257.36-40.08L257.36-33.84L245.84-33.84L245.84-13.76L245.84-13.76Q245.84-11.44 246.36-9.84L246.36-9.84L246.36-9.84Q246.88-8.24 247.76-7.28L247.76-7.28L247.76-7.28Q248.64-6.32 249.88-5.88L249.88-5.88L249.88-5.88Q251.12-5.44 252.48-5.44L252.48-5.44L252.48-5.44Q254.48-5.44 256.24-6.08L256.24-6.08L256.24-6.08Q258-6.72 259.60-7.60L259.60-7.60L261.60-1.84L261.60-1.84Q260-0.88 257.28 0.04L257.28 0.04L257.28 0.04Q254.56 0.96 251.60 0.96L251.60 0.96L251.60 0.96Q245.60 0.96 242.12-2.96L242.12-2.96L242.12-2.96Q238.64-6.88 238.64-14.32L238.64-14.32L238.64-33.84L231.44-33.84L231.44-40.08L238.80-40.08" fill="#ffffff" stroke="none" stroke-width="none" transform="translate(-146.95999145507812,21.80693258921306)" style="fill: rgb(255, 255, 255);"></path></g><g class="path" style="transform: scale(0.91); transform-origin: 135.8px 1.00693px; animation: 1s linear 0s infinite normal forwards running breath-83d600ce-77ae-4bec-9097-b1f97f2d9d87;"><path d="M300.88-17.84L271.76-17.84L271.76-17.84Q272.48-12 275.84-8.72L275.84-8.72L275.84-8.72Q279.20-5.44 284.72-5.44L284.72-5.44L284.72-5.44Q288.32-5.44 291.20-6.20L291.20-6.20L291.20-6.20Q294.08-6.96 296.72-8.16L296.72-8.16L298.40-2L298.40-2Q295.52-0.64 291.92 0.16L291.92 0.16L291.92 0.16Q288.32 0.96 283.84 0.96L283.84 0.96L283.84 0.96Q279.36 0.96 275.76-0.52L275.76-0.52L275.76-0.52Q272.16-2 269.64-4.76L269.64-4.76L269.64-4.76Q267.12-7.52 265.76-11.56L265.76-11.56L265.76-11.56Q264.40-15.60 264.40-20.80L264.40-20.80L264.40-20.80Q264.40-25.44 265.76-29.44L265.76-29.44L265.76-29.44Q267.12-33.44 269.60-36.36L269.60-36.36L269.60-36.36Q272.08-39.28 275.52-40.92L275.52-40.92L275.52-40.92Q278.96-42.56 283.20-42.56L283.20-42.56L283.20-42.56Q287.68-42.56 291.04-41.04L291.04-41.04L291.04-41.04Q294.40-39.52 296.64-36.88L296.64-36.88L296.64-36.88Q298.88-34.24 300-30.72L300-30.72L300-30.72Q301.12-27.20 301.12-23.28L301.12-23.28L301.12-23.28Q301.12-20.48 300.88-17.84L300.88-17.84zM283.04-36.32L283.04-36.32L283.04-36.32Q278.32-36.32 275.32-33.12L275.32-33.12L275.32-33.12Q272.32-29.92 271.68-23.68L271.68-23.68L294.48-23.68L294.48-23.68Q294.48-29.76 291.44-33.04L291.44-33.04L291.44-33.04Q288.40-36.32 283.04-36.32" fill="#ffffff" stroke="none" stroke-width="none" transform="translate(-146.95999145507812,21.80693258921306)" style="fill: rgb(255, 255, 255);"></path></g></g>
</g>
</g>
<style id="breath-83d600ce-77ae-4bec-9097-b1f97f2d9d87" data-anikit="">@keyframes breath-83d600ce-77ae-4bec-9097-b1f97f2d9d87
{
  0% {
    animation-timing-function: cubic-bezier(0.9647,0.2413,-0.0705,0.7911);
    transform: scale(0.9099999999999999);
  }
  51% {
    animation-timing-function: cubic-bezier(0.9226,0.2631,-0.0308,0.7628);
    transform: scale(1.02994);
  }
  100% {
    transform: scale(0.9099999999999999);
  }
}</style></svg>